<svg width="291" height="149" viewBox="0 0 291 149" fill="none" xmlns="http://www.w3.org/2000/svg">
<path d="M1 32L26 20C30.3333 36 41.4 68 51 68C60.6 68 64.3333 32 65 14L94 20C83.3333 36 66.6 66.8 85 62M85 62C108 56 109.22 15 100 20M85 62C98.4858 58.482 104.484 42.9312 105.28 31.6756M100 20C92.6237 24 112.927 38.3333 124 45M100 20C103.814 17.9317 105.842 23.7347 105.28 31.6756M100 20C96.268 22.0238 99.6214 26.6927 105.28 31.6756M124 45L126.5 29.5M124 45C118.529 41.7063 110.806 36.5413 105.28 31.6756M129 14L126.5 29.5M126.5 29.5C130.667 24.3333 140 14 144 14C148 14 159 18 164 20C164.667 9.99996 164.383 -1.22784 177 1.99996C201.637 8.30296 182.078 40.5365 164 54C157.947 58.5079 191 56.6666 207 54M84 112L109 100C113.333 116 124.4 148 134 148C143.6 148 147.333 112 148 94L177 100C166.333 116 149.6 146.8 168 142M168 142C191 136 192.22 95 183 100M168 142C181.486 138.482 187.484 122.931 188.28 111.676M183 100C175.624 104 195.927 118.333 207 125M183 100C186.814 97.9317 188.842 103.735 188.28 111.676M183 100C179.268 102.024 182.621 106.693 188.28 111.676M207 125L209.5 109.5M207 125C201.529 121.706 193.806 116.541 188.28 111.676M212 94L209.5 109.5M209.5 109.5C213.667 104.333 223 94 227 94C231 94 242 98 247 100C247.667 90 247.383 78.7722 260 82C284.637 88.303 265.078 120.536 247 134C240.947 138.508 274 136.667 290 134"/>
</svg>
