<svg width="484" height="370" viewBox="0 0 484 370" fill="none" xmlns="http://www.w3.org/2000/svg">
<path d="M8 88L19 106L1 112L74 94C46.3333 108 -3.4 140.6 19 159C41.4 177.4 57.6667 146 63 128L45 119L97 101L74 139L104 119L89 59L114 159V22L147 166L164.292 83M164.292 83L172 46H206M164.292 83L206 88V46M206 46L225 2L236 112L198 166L274 159L304.282 59M317 17L304.282 59M304.282 59H343L363 2L381 106M381 106H343L335 159L381 154V106ZM104 236L89 269M74 300L89 269M89 269L124 300L136 208L147 284.389M154 333L147 284.389M147 284.389L184 260L193 221L242 208L236 242L198 253V284.389L236 269L274 190L279 290V253L317 236L264 333M264 333C253 341.333 235.8 359.8 255 367C274.2 374.2 290.333 360 296 352C301.667 342 309.6 322.6 296 325C282.4 327.4 269 331.333 264 333ZM264 333L381 208V242L359 249L421 227C396.667 251.333 354.6 300 381 300C407.4 300 412.667 279.333 412 269L398 260L450 208L447 266.5M444 325L447 266.5M447 266.5L483.5 253V177V352" stroke="black"/>
</svg>
